<?xml version="1.0" encoding="UTF-8"?>
<svg version="1.1" xmlns="http://www.w3.org/2000/svg" width="1023" height="1023">
<path d="M0 0 C1.0504097 0.00223572 1.0504097 0.00223572 2.12203979 0.0045166 C12.77254183 0.0451946 22.82005378 0.70085324 33.1875 3.3125 C35.00701172 3.71275391 35.00701172 3.71275391 36.86328125 4.12109375 C75.09087551 13.2036795 107.29371174 38.57999002 128.1875 71.3125 C128.74630859 72.18213379 128.74630859 72.18213379 129.31640625 73.06933594 C137.51279047 86.02174016 143.1068718 100.41770687 147.0625 115.1875 C147.25352295 115.89865967 147.4445459 116.60981934 147.64135742 117.3425293 C150.91930249 130.43201064 151.45913127 143.28595525 151.3125 156.6875 C151.30243716 158.30989023 151.29331722 159.93228659 151.28515625 161.5546875 C151.26343419 165.47411383 151.22909219 169.39323625 151.1875 173.3125 C152.05705322 173.63863281 152.92660645 173.96476563 153.82250977 174.30078125 C154.97549561 174.73777344 156.12848145 175.17476562 157.31640625 175.625 C158.45408447 176.05425781 159.5917627 176.48351562 160.76391602 176.92578125 C178.55433986 184.13177194 190.32527409 196.842415 198 214.375 C204.92877392 230.85744172 204.32469568 251.70393091 198.1875 268.3125 C190.77096136 286.14602567 178.3147338 297.64588482 161.046875 305.953125 C150.64510349 310.0118757 139.7851785 310.74766092 128.74658203 310.65307617 C127.36522439 310.65222713 125.98386541 310.65271043 124.60250854 310.65440369 C120.90085351 310.65525428 117.19949814 310.63778298 113.49791193 310.61668181 C109.61156952 310.59775633 105.72521805 310.59615221 101.83883667 310.59260559 C94.5010492 310.58333125 87.16339797 310.55878088 79.82567012 310.52855712 C71.46276693 310.49486834 63.09985678 310.47849094 54.73690248 310.46347082 C37.55368989 310.43222644 20.37060941 310.37955707 3.1875 310.3125 C3.19330078 310.92085693 3.19910156 311.52921387 3.20507812 312.15600586 C3.2118457 313.36075562 3.2118457 313.36075562 3.21875 314.58984375 C3.22455078 315.38382568 3.23035156 316.17780762 3.23632812 316.99584961 C3.17648603 319.83505778 2.75752026 322.53365122 2.1875 325.3125 C2.91453125 325.47105469 3.6415625 325.62960937 4.390625 325.79296875 C31.2858025 332.03402917 54.94020208 348.83526248 70.09765625 371.9140625 C87.25550721 399.81561453 94.47575802 432.83130369 87.22265625 465.30859375 C82.61896828 483.77363418 75.44684271 500.60950272 63.1875 515.3125 C62.42824219 516.23546875 61.66898438 517.1584375 60.88671875 518.109375 C48.39354244 532.58591973 32.28394476 543.51718595 14.1875 549.6875 C13.52524414 549.9141333 12.86298828 550.1407666 12.18066406 550.37426758 C9.86597187 551.10523748 7.53982355 551.71217812 5.1875 552.3125 C4.20553343 552.56610686 3.22356686 552.81971372 2.21184373 553.08100563 C-10.88429876 555.99263309 -23.99085466 555.74149578 -37.34675131 555.70410402 C-40.96112148 555.69733648 -44.57544959 555.70808901 -48.18981051 555.71649987 C-54.5115754 555.7288233 -60.83326602 555.73009799 -67.15503883 555.72394943 C-76.5561991 555.71483047 -85.95729111 555.72291277 -95.35844616 555.73424067 C-112.15345601 555.75387944 -128.94843495 555.75626032 -145.74345354 555.75104547 C-160.44378799 555.74648345 -175.14411022 555.74709352 -189.84444427 555.75288582 C-191.81842215 555.75364269 -193.79240003 555.75439867 -195.76637791 555.75515376 C-198.74121084 555.75629899 -201.71604376 555.75744887 -204.69087668 555.75861301 C-232.33872489 555.76931391 -259.98656904 555.77404751 -287.63441849 555.76614285 C-288.67604007 555.76584567 -289.71766165 555.7655485 -290.79084752 555.76524232 C-299.24884286 555.76279353 -307.70683816 555.76018187 -316.16483345 555.75755819 C-349.14978461 555.74745755 -382.13468485 555.75580936 -415.11962891 555.77905273 C-452.2048117 555.80514331 -489.28996385 555.81796841 -526.37515616 555.81086498 C-530.33186833 555.81014896 -534.28858049 555.80947457 -538.24529266 555.80882454 C-539.21948759 555.80865473 -540.19368251 555.80848492 -541.19739849 555.80830997 C-555.8827525 555.80601005 -570.56807799 555.81396929 -585.2534256 555.82711601 C-601.9612151 555.84204689 -618.6689379 555.84284418 -635.376726 555.8250451 C-644.71748551 555.815503 -654.05808932 555.81687408 -663.39883833 555.83427979 C-669.65009289 555.84480966 -675.90122949 555.84061247 -682.15247253 555.82479975 C-685.70630025 555.81621169 -689.25982411 555.81363436 -692.81363562 555.82906907 C-727.90125785 555.94999631 -757.8825409 548.40396584 -783.9375 523.625 C-804.70753528 502.01202497 -815.57545814 474.1947924 -816.8125 444.3125 C-816.85375 443.47074219 -816.895 442.62898438 -816.9375 441.76171875 C-817.29527164 427.38377102 -815.54853984 412.89572538 -810.8125 399.3125 C-810.44125 398.22710938 -810.07 397.14171875 -809.6875 396.0234375 C-805.00844059 383.12524084 -798.44483711 371.9526982 -789.8125 361.3125 C-789.12542969 360.45914062 -788.43835938 359.60578125 -787.73046875 358.7265625 C-769.83337544 337.67506498 -743.83085541 325.41588111 -716.52734375 322.73828125 C-708.21322916 322.09490018 -699.89511954 322.20490823 -691.5625 322.25 C-689.93099097 322.25502851 -688.29948042 322.25958901 -686.66796875 322.26367188 C-682.7161077 322.27456243 -678.76432108 322.29175134 -674.8125 322.3125 C-674.82555176 321.34642822 -674.83860352 320.38035645 -674.85205078 319.38500977 C-674.91022326 311.92739084 -674.81186251 304.63737779 -673.6875 297.25 C-673.55553223 296.37279297 -673.42356445 295.49558594 -673.28759766 294.59179688 C-668.44906933 264.59185669 -656.10641358 235.87977625 -636.8125 212.3125 C-636.36825684 211.76287598 -635.92401367 211.21325195 -635.46630859 210.64697266 C-607.29362637 175.96026374 -567.28524052 154.05166721 -522.79150391 148.96728516 C-503.6288086 147.26414749 -484.51941312 148.94172591 -465.8125 153.3125 C-465.57660156 152.62414062 -465.34070313 151.93578125 -465.09765625 151.2265625 C-463.55361329 147.72548029 -461.49337828 144.7622154 -459.25 141.6875 C-458.80454834 141.07213379 -458.35909668 140.45676758 -457.90014648 139.82275391 C-451.27339758 130.74813871 -444.02091148 122.32385389 -436.37890625 114.1015625 C-434.23751785 111.77439155 -432.16907371 109.41191385 -430.125 107 C-426.66785164 103.03038024 -422.83526354 99.69512529 -418.8125 96.3125 C-417.88824219 95.50039063 -416.96398437 94.68828125 -416.01171875 93.8515625 C-403.00730234 82.4861667 -388.82924226 72.8171665 -373.8125 64.3125 C-373.21791992 63.9726709 -372.62333984 63.6328418 -372.01074219 63.28271484 C-315.28136782 31.10118424 -246.0165144 24.44433327 -183.4375 41.4375 C-164.82093495 46.73415411 -147.20166856 54.10012174 -130.28515625 63.4765625 C-127.17249953 65.46829502 -127.17249953 65.46829502 -124.8125 65.3125 C-123.60526536 63.77546943 -122.47332023 62.17915431 -121.375 60.5625 C-116.69289312 53.95996453 -111.38191708 48.17113013 -105.8125 42.3125 C-105.19117188 41.61511719 -104.56984375 40.91773438 -103.9296875 40.19921875 C-78.12474443 12.25350686 -36.91089046 -0.19551947 0 0 Z " fill="#7BE2FB" transform="translate(819.8125,248.6875)"/>
<path d="M0 0 C1.0504097 0.00223572 1.0504097 0.00223572 2.12203979 0.0045166 C12.77254183 0.0451946 22.82005378 0.70085324 33.1875 3.3125 C35.00701172 3.71275391 35.00701172 3.71275391 36.86328125 4.12109375 C75.09087551 13.2036795 107.29371174 38.57999002 128.1875 71.3125 C128.56003906 71.89225586 128.93257812 72.47201172 129.31640625 73.06933594 C137.51279047 86.02174016 143.1068718 100.41770687 147.0625 115.1875 C147.25352295 115.89865967 147.4445459 116.60981934 147.64135742 117.3425293 C150.91930249 130.43201064 151.45913127 143.28595525 151.3125 156.6875 C151.30243716 158.30989023 151.29331722 159.93228659 151.28515625 161.5546875 C151.26343419 165.47411383 151.22909219 169.39323625 151.1875 173.3125 C152.05705322 173.63863281 152.92660645 173.96476563 153.82250977 174.30078125 C154.97549561 174.73777344 156.12848145 175.17476562 157.31640625 175.625 C158.45408447 176.05425781 159.5917627 176.48351562 160.76391602 176.92578125 C178.55433986 184.13177194 190.32527409 196.842415 198 214.375 C204.92877392 230.85744172 204.32469568 251.70393091 198.1875 268.3125 C190.77096136 286.14602567 178.3147338 297.64588482 161.046875 305.953125 C146.50064782 311.47072348 131.55341913 310.70544384 116.25219727 310.61645508 C113.52507882 310.61005488 110.79796179 310.60825916 108.07083702 310.60627556 C102.20070706 310.59963338 96.33069379 310.58203013 90.46061516 310.55685997 C81.84194216 310.51995024 73.22329066 310.50000582 64.60455642 310.48398686 C51.35477233 310.45905285 38.10504277 310.42386328 24.85530581 310.38084745 C5.41053302 310.31776448 -14.03418998 310.28245528 -33.47904614 310.2583147 C-62.26716213 310.22218806 -91.05513239 310.16023249 -119.84314919 310.07673454 C-122.93815728 310.06779784 -126.03316551 310.05890744 -129.12817383 310.05004883 C-129.89497618 310.04784632 -130.66177853 310.04564381 -131.45181732 310.04337455 C-144.21870345 310.00700004 -156.98558866 309.98263752 -169.75250906 309.96215298 C-183.17257662 309.94039699 -196.59258173 309.90748107 -210.01259607 309.86379844 C-218.14689284 309.83763824 -226.28111331 309.8196841 -234.41544997 309.81315396 C-240.549224 309.80728074 -246.68285143 309.78571315 -252.81656456 309.75822449 C-255.31270714 309.7494562 -257.80887347 309.74571916 -260.30503082 309.74749184 C-263.71573456 309.74915032 -267.12588653 309.73240435 -270.53651428 309.71122742 C-271.99735879 309.71849878 -271.99735879 309.71849878 -273.4877153 309.72591704 C-290.71449918 309.5500351 -306.61140262 302.41706971 -318.8125 290.3125 C-330.42720318 276.72886597 -336.59033665 261.29846491 -336.25 243.4375 C-336.23461182 242.20241699 -336.21922363 240.96733398 -336.20336914 239.69482422 C-335.80440781 220.88522669 -330.83355729 205.36541466 -317.8125 191.3125 C-317.17054688 190.61640625 -316.52859375 189.9203125 -315.8671875 189.203125 C-311.38818976 184.80927931 -306.48521795 181.82740333 -300.9375 179 C-300.30199219 178.67435059 -299.66648437 178.34870117 -299.01171875 178.01318359 C-288.32274484 172.84344093 -278.41537617 171.89543202 -266.625 172.125 C-265.27800994 172.14009096 -263.93100332 172.15377148 -262.58398438 172.16601562 C-259.32638848 172.20104354 -256.06966827 172.25016338 -252.8125 172.3125 C-252.84839233 171.08430542 -252.84839233 171.08430542 -252.88500977 169.83129883 C-253.00634238 162.57182642 -252.54216766 156.03081161 -250.75 149 C-250.52812012 148.10555176 -250.30624023 147.21110352 -250.07763672 146.28955078 C-243.29713526 120.29376632 -227.00266515 97.1580145 -203.8125 83.3125 C-195.88032072 78.85972017 -187.65631982 74.58402906 -178.8125 72.3125 C-177.8740625 72.03664063 -176.935625 71.76078125 -175.96875 71.4765625 C-160.0857507 67.35454601 -142.84760462 68.47532509 -126.8125 71.3125 C-126.42384766 69.98605469 -126.42384766 69.98605469 -126.02734375 68.6328125 C-122.27440424 58.37558234 -113.23450464 50.11992031 -105.8125 42.3125 C-105.19117188 41.61511719 -104.56984375 40.91773438 -103.9296875 40.19921875 C-78.12474443 12.25350686 -36.91089046 -0.19551947 0 0 Z " fill="#2F7ACC" transform="translate(819.8125,248.6875)"/>
<path d="M0 0 C1.62564869 0.87837877 3.23315759 1.79089051 4.82421875 2.73046875 C5.75669434 3.27823975 6.68916992 3.82601074 7.64990234 4.39038086 C9.15351318 5.27995483 9.15351318 5.27995483 10.6875 6.1875 C12.86033348 7.46412666 15.03352265 8.7401481 17.20703125 10.015625 C18.32932129 10.67498047 19.45161133 11.33433594 20.60791016 12.01367188 C26.01565889 15.18032249 31.44463509 18.30984045 36.875 21.4375 C37.95209229 22.05834473 39.02918457 22.67918945 40.13891602 23.31884766 C43.42563392 25.21310391 46.7127527 27.10666261 50 29 C54.37542829 31.52009089 58.75048807 34.04081873 63.125 36.5625 C64.19161865 37.17722168 65.2582373 37.79194336 66.35717773 38.42529297 C74.8663192 43.33433853 83.35328569 48.2808645 91.82275391 53.25805664 C98.15711213 56.96846817 104.54832606 60.48090512 111 64 C111 108.22 111 152.44 111 198 C84.20019531 213.46142578 84.20019531 213.46142578 74.69140625 218.93945312 C64.46405129 224.83330331 54.25618483 230.75927844 44.06494141 236.71533203 C35.4210387 241.76343976 26.75307087 246.76916794 18.078125 251.76367188 C17.0675 252.34568359 16.056875 252.92769531 15.015625 253.52734375 C13.5315918 254.37208252 13.5315918 254.37208252 12.01757812 255.23388672 C9.91123449 256.46667716 7.83329593 257.74873534 5.77929688 259.06689453 C4.21018555 260.05665283 4.21018555 260.05665283 2.609375 261.06640625 C1.67577148 261.67556885 0.74216797 262.28473145 -0.21972656 262.91235352 C-3 264 -3 264 -6.00634766 263.37915039 C-8.96369276 262.01672644 -11.72264161 260.55367933 -14.5078125 258.8671875 C-16.08961304 257.91767212 -16.08961304 257.91767212 -17.70336914 256.94897461 C-18.25960968 256.61171356 -18.81585022 256.27445251 -19.38894653 255.92697144 C-22.39844644 254.10334791 -25.42031147 252.30042132 -28.44140625 250.49609375 C-29.3787989 249.93551018 -29.3787989 249.93551018 -30.33512878 249.36360168 C-36.86201781 245.46883645 -43.45551186 241.69427414 -50.0625 237.9375 C-51.23359215 237.27088771 -52.4046533 236.60422095 -53.57568359 235.9375 C-55.32561674 234.94126298 -57.07557887 233.94507759 -58.82574463 232.94924927 C-77.29408779 222.43604538 -95.68483611 211.77786433 -114 201 C-115.29185353 200.38311326 -115.29185353 200.38311326 -116.60980511 199.75376415 C-119 198 -119 198 -119.61523914 195.53812885 C-119.6083257 194.0600338 -119.6083257 194.0600338 -119.60127258 192.55207825 C-119.6081459 191.42045761 -119.61501923 190.28883698 -119.62210083 189.1229248 C-119.60412445 187.88071167 -119.58614807 186.63849854 -119.56762695 185.35864258 C-119.56835709 184.05122604 -119.56908722 182.74380951 -119.56983948 181.39677429 C-119.57127586 177.80994691 -119.54185174 174.22395318 -119.50696969 170.6373198 C-119.47574231 166.88974103 -119.47277834 163.14214376 -119.46684265 159.39445496 C-119.45129344 152.2970104 -119.4102508 145.19995029 -119.3600952 138.10267514 C-119.30423493 130.02300712 -119.27672366 121.94332087 -119.25161803 113.86350787 C-119.19933554 97.24211341 -119.11137282 80.62110574 -119 64 C-118.48663841 63.71546054 -117.97327682 63.43092108 -117.44435883 63.13775921 C-115.08956911 61.83218904 -112.73521154 60.52584145 -110.38085938 59.21948242 C-109.57340271 58.77195366 -108.76594604 58.3244249 -107.934021 57.86333466 C-101.74148782 54.42621905 -95.60335161 50.90571755 -89.5 47.3125 C-87.44562799 46.10883637 -85.39092877 44.90573107 -83.3359375 43.703125 C-82.2953418 43.09404297 -81.25474609 42.48496094 -80.18261719 41.85742188 C-74.84108821 38.74002755 -69.48343708 35.6507134 -64.125 32.5625 C-62.51214111 31.63244141 -62.51214111 31.63244141 -60.86669922 30.68359375 C-55.34077853 27.49813089 -49.81225159 24.31725715 -44.28125 21.140625 C-43.17724854 20.50560059 -42.07324707 19.87057617 -40.93579102 19.21630859 C-38.74995267 17.95938304 -36.56296214 16.70445879 -34.37475586 15.45166016 C-29.22584908 12.49175766 -24.12572181 9.48177744 -19.09765625 6.3203125 C-18.18097168 5.74885498 -17.26428711 5.17739746 -16.31982422 4.58862305 C-14.6121362 3.51747724 -12.91381061 2.43120098 -11.22705078 1.32739258 C-10.47536621 0.85712646 -9.72368164 0.38686035 -8.94921875 -0.09765625 C-8.30299561 -0.51539307 -7.65677246 -0.93312988 -6.9909668 -1.36352539 C-4.07750036 -2.29490577 -2.68222656 -1.35392973 0 0 Z " fill="#1E73B3" transform="translate(278,518)"/>
<path d="M0 0 C3.8125 0.6875 3.8125 0.6875 5.8125 2.1875 C6.3075 2.93 6.3075 2.93 6.8125 3.6875 C5.49430513 7.6013157 3.94272856 9.87505968 0.9375 12.6875 C0.22464844 13.38359375 -0.48820312 14.0796875 -1.22265625 14.796875 C-1.87105469 15.42078125 -2.51945312 16.0446875 -3.1875 16.6875 C-8.50794954 21.86415361 -9.61940548 29.1358993 -10.51171875 36.28515625 C-9.93276689 40.5749803 -6.94475049 42.54567827 -3.7578125 45.203125 C-0.87984839 46.86517114 0.17689844 47.06587908 3.375 46.375 C4.86805776 45.85048232 6.34826975 45.2878083 7.8125 44.6875 C8.50472656 44.49414062 9.19695312 44.30078125 9.91015625 44.1015625 C16.58705282 42.1203639 20.32007773 37.63918849 24.69921875 32.453125 C25.31410156 31.72609375 25.92898438 30.9990625 26.5625 30.25 C27.11421875 29.57066406 27.6659375 28.89132812 28.234375 28.19140625 C29.8125 26.6875 29.8125 26.6875 32.8125 26.6875 C34.8125 28.6875 34.8125 28.6875 35.375 32.3125 C35.26203386 37.11790571 32.9908407 39.43114334 29.71875 42.7421875 C27.96539748 44.53146938 26.63239125 46.33981781 25.1875 48.375 C19.62293425 54.92682742 8.98748329 57.10987165 0.8125 58.6875 C-2.6875 58.8125 -2.6875 58.8125 -5.1875 58.6875 C-5.27829834 59.31744873 -5.36909668 59.94739746 -5.46264648 60.59643555 C-6.48367025 64.95048805 -8.14116374 68.99178105 -9.78515625 73.14453125 C-10.13887802 74.04749435 -10.49259979 74.95045746 -10.85704041 75.88078308 C-11.98415096 78.75539477 -13.11699123 81.62770863 -14.25 84.5 C-15.01665537 86.45232504 -15.78293576 88.40479738 -16.54882812 90.35742188 C-18.42404364 95.13583264 -20.30439997 99.91219121 -22.1875 104.6875 C-21.37032501 104.69558685 -20.55315002 104.70367371 -19.71121216 104.71200562 C-11.97350036 104.79026067 -4.23596881 104.87764198 3.50152397 104.97502708 C7.47852024 105.02476683 11.45549278 105.07109691 15.43261719 105.109375 C19.27771979 105.14651223 23.12261231 105.19294512 26.96753311 105.24556351 C28.42734175 105.26395766 29.88719516 105.27911956 31.3470726 105.29084396 C45.94874959 105.41220343 57.07089885 106.51695822 68.14453125 116.8671875 C76.9060315 126.26263674 79.15576269 134.54678214 79.0234375 147.25 C78.40351299 157.35247351 72.04363227 166.25969583 64.8671875 173.1171875 C54.97072642 180.68064255 43.47508774 181.67605413 31.4921875 180.30859375 C27.01702746 179.64926043 22.65713068 178.90954088 18.27880859 177.75854492 C13.27131152 176.49808914 8.21281035 175.70798016 3.11328125 174.91796875 C1.58191277 174.67623177 1.58191277 174.67623177 0.01960754 174.42961121 C-2.1557213 174.08630206 -4.33126982 173.74438238 -6.50701904 173.40374756 C-9.89961243 172.87113603 -13.29102147 172.33153797 -16.68212891 171.78955078 C-30.0390303 169.65259245 -30.0390303 169.65259245 -43.40663147 167.58399963 C-45.42956265 167.27429654 -47.45094574 166.95621257 -49.47192383 166.6340332 C-51.76486564 166.26905212 -54.06017428 165.91845472 -56.3581543 165.58666992 C-65.85865935 164.03786332 -76.08593999 160.62386404 -82.0078125 152.58203125 C-82.39710938 151.95683594 -82.78640625 151.33164062 -83.1875 150.6875 C-83.80238281 149.70330078 -83.80238281 149.70330078 -84.4296875 148.69921875 C-88.15224777 141.67769989 -88.50755429 133.7880648 -86.52734375 126.13671875 C-84.22659879 120.36991646 -80.41180781 116.14450273 -76.1875 111.6875 C-71.08715716 106.08193452 -66.434035 100.18345987 -61.84375 94.16015625 C-59.24122 90.74720606 -56.59518724 87.37008699 -53.9375 84 C-49.06765985 77.81931757 -44.23356615 71.61139502 -39.40844727 65.39575195 C-36.579781 61.75430906 -33.74438994 58.11874221 -30.88671875 54.5 C-30.37689453 53.85417969 -29.86707031 53.20835937 -29.34179688 52.54296875 C-28.38764759 51.33598896 -27.43199719 50.13019382 -26.47460938 48.92578125 C-23.03245444 44.57169246 -22.11057734 42.45674044 -21.875 36.9375 C-21.2306743 28.26314505 -20.34266088 18.16929378 -13.8125 11.8125 C-13.20535156 11.30847656 -12.59820312 10.80445313 -11.97265625 10.28515625 C-9.9424919 8.46822579 -8.71217948 6.54088065 -7.25 4.25 C-5.05799937 1.209483 -3.79555836 0.13852403 0 0 Z " fill="#F9FAFC" transform="translate(278.1875,547.3125)"/>
<path d="M0 0 C2.79736328 1.2734375 2.79736328 1.2734375 5.17236328 2.7109375 C7.88188666 4.4365903 7.88188666 4.4365903 11.50048828 5.60546875 C15.69873567 7.15401821 19.36515207 9.19270577 23.17236328 11.5234375 C24.66766832 12.42058672 26.16381942 13.31632671 27.66064453 14.2109375 C28.88388428 14.94376953 28.88388428 14.94376953 30.13183594 15.69140625 C35.17818281 18.68649031 40.27246444 21.59883212 45.35986328 24.5234375 C57.86624166 31.72709683 70.34932764 38.96938989 82.79736328 46.2734375 C84.00827637 46.98234131 84.00827637 46.98234131 85.24365234 47.70556641 C87.3689128 48.95205214 89.49022829 50.20491607 91.60986328 51.4609375 C92.20822998 51.81140137 92.80659668 52.16186523 93.4230957 52.52294922 C96.24803483 54.20876615 98.50209621 55.93991597 100.79736328 58.2734375 C102.33282202 59.2148673 103.89758102 60.10978614 105.48486328 60.9609375 C106.29310547 61.39792969 107.10134766 61.83492187 107.93408203 62.28515625 C108.54896484 62.61128906 109.16384766 62.93742188 109.79736328 63.2734375 C109.79736328 63.9334375 109.79736328 64.5934375 109.79736328 65.2734375 C107.15658094 66.79696577 104.51579598 68.3204895 101.875 69.84399414 C99.54064686 71.19076173 97.20633093 72.53759357 94.87207031 73.88452148 C88.95757839 77.29721048 83.04247887 80.70883156 77.12548828 84.1171875 C65.6882048 90.7071263 54.26624908 97.32183132 42.87109375 103.984375 C37.52262657 107.10896388 32.16609165 110.21894717 26.79736328 113.30859375 C26.21148437 113.64587494 25.62560547 113.98315613 25.02197266 114.33065796 C22.19052848 115.96023757 19.35798918 117.58786978 16.52392578 119.21289062 C12.0290066 121.7971861 7.57208558 124.39284923 3.21923828 127.2109375 C-0.20263672 129.2734375 -0.20263672 129.2734375 -2.95263672 129.2109375 C-5.0966538 128.31759705 -7.171723 127.4017229 -9.20263672 126.2734375 C-6.70263672 127.6484375 -6.70263672 127.6484375 -4.20263672 129.2734375 C-4.20263672 129.9334375 -4.20263672 130.5934375 -4.20263672 131.2734375 C-8.00682958 134.18833852 -10.79170349 134.61665508 -15.51513672 134.4609375 C-17.11808594 134.42033203 -17.11808594 134.42033203 -18.75341797 134.37890625 C-19.56166016 134.34410156 -20.36990234 134.30929687 -21.20263672 134.2734375 C-19.13596491 128.68073352 -19.13596491 128.68073352 -18.1550293 126.16699219 C-16.40974215 121.65973643 -14.82732576 117.13597782 -13.38421631 112.52191162 C-6.21570046 89.81124553 -6.21570046 89.81124553 -1.15332031 85.54736328 C3.66806137 83.26814483 8.54589297 83.29918 13.79736328 83.2734375 C23.47196804 81.24280522 28.85489232 74.67186778 34.79736328 67.2734375 C35.90384136 65.06048134 35.99324696 63.72671051 36.04736328 61.2734375 C36.07314453 60.5721875 36.09892578 59.8709375 36.12548828 59.1484375 C36.01720703 58.5296875 35.90892578 57.9109375 35.79736328 57.2734375 C34.80736328 56.6134375 33.81736328 55.9534375 32.79736328 55.2734375 C32.38075439 55.7674707 31.96414551 56.26150391 31.53491211 56.77050781 C17.04647645 73.70447539 17.04647645 73.70447539 6.46923828 76.09375 C1.38581816 76.43561744 -1.10825274 74.93616805 -5.01513672 71.7109375 C-9.17377486 67.87953645 -9.17377486 67.87953645 -9.39013672 63.3359375 C-9.01090611 61.97702781 -8.61464675 60.62277034 -8.20263672 59.2734375 C-8.16138672 58.59796875 -8.12013672 57.9225 -8.07763672 57.2265625 C-7.47845975 50.38595878 -3.20124919 46.49996562 1.45483398 41.87817383 C4.48801734 38.85150044 6.54638679 36.49548314 7.79736328 32.2734375 C4.79119059 29.26726481 1.9735473 29.67758434 -2.20263672 29.2734375 C-2.43208984 29.83289063 -2.66154297 30.39234375 -2.89794922 30.96875 C-4.54681638 33.88141953 -6.68382698 35.8114541 -9.07763672 38.1484375 C-16.97127367 46.7141157 -18.68822489 56.67738338 -18.53857422 68.140625 C-19.52340945 72.78673005 -22.23520069 75.65574299 -25.20263672 79.2734375 C-26.28048488 80.67591123 -27.35340232 82.08218801 -28.42138672 83.4921875 C-30.06254641 85.63470385 -31.70485796 87.77633408 -33.34716797 89.91796875 C-36.995613 94.68097455 -40.6120892 99.46663244 -44.20263672 104.2734375 C-48.33753455 103.00921658 -51.90203482 101.46866189 -55.63232422 99.2890625 C-56.66325195 98.69037354 -57.69417969 98.09168457 -58.75634766 97.47485352 C-59.85237305 96.83088623 -60.94839844 96.18691895 -62.07763672 95.5234375 C-63.23131497 94.85097801 -64.38529111 94.17902935 -65.53955078 93.50756836 C-68.51362268 91.77580393 -71.48392357 90.03768099 -74.45324707 88.29779053 C-77.21926283 86.67815329 -79.98836409 85.06381561 -82.75732422 83.44921875 C-85.82220116 81.66196978 -88.88686339 79.87436867 -91.95019531 78.08447266 C-99.34125467 73.76709604 -106.75629797 69.49477743 -114.20263672 65.2734375 C-114.20263672 64.6134375 -114.20263672 63.9534375 -114.20263672 63.2734375 C-113.63158203 62.95294434 -113.06052734 62.63245117 -112.47216797 62.30224609 C-100.3888939 55.51380893 -88.35703024 48.64654842 -76.39550781 41.64575195 C-69.05435149 37.34991672 -61.69688029 33.08340702 -54.32763672 28.8359375 C-53.25779541 28.21928223 -52.1879541 27.60262695 -51.08569336 26.96728516 C-48.90602105 25.71125818 -46.72625148 24.45539996 -44.54638672 23.19970703 C-39.93486247 20.54309734 -35.32411532 17.88514193 -30.71386719 15.22631836 C-28.5359879 13.97030852 -26.35794166 12.71458811 -24.1796875 11.45922852 C-23.17921387 10.88229248 -22.17874023 10.30535645 -21.14794922 9.7109375 C-20.17116211 9.1540625 -19.194375 8.5971875 -18.18798828 8.0234375 C-16.09562647 6.79690418 -14.03154673 5.52143323 -11.99072266 4.2109375 C-10.94432617 3.5509375 -9.89792969 2.8909375 -8.81982422 2.2109375 C-7.88509277 1.60121094 -6.95036133 0.99148438 -5.98730469 0.36328125 C-3.20263672 -0.7265625 -3.20263672 -0.7265625 0 0 Z " fill="#266795" transform="translate(276.20263671875,518.7265625)"/>
<path d="M0 0 C3.76716237 1.46971074 7.19053264 3.1502078 10.69921875 5.16796875 C11.81377441 5.80686035 12.92833008 6.44575195 14.07666016 7.10400391 C15.28033117 7.79840255 16.48394303 8.49290371 17.6875 9.1875 C18.93263391 9.90308619 20.17791601 10.6184146 21.42333984 11.33349609 C24.64557513 13.18472553 27.86544668 15.04002729 31.08477783 16.89630127 C33.55502971 18.31985093 36.02686799 19.7406311 38.49879456 21.16127014 C41.37496417 22.81451432 44.25001654 24.46969382 47.125 26.125 C48.17131592 26.72723389 49.21763184 27.32946777 50.2956543 27.94995117 C56.5693023 31.57012306 62.80259048 35.25078094 69 39 C64.30354219 46.56060301 58.7655786 53.32431936 53.12109375 60.18359375 C50.72487012 63.0974188 48.40117479 66.05340726 46.125 69.0625 C44.02716753 71.81102492 41.82716761 74.19077139 39.3125 76.5625 C33.56749801 82.10094012 30.87880556 89.02986102 30.5625 96.9375 C30.64477951 105.12888257 33.19619363 111.88128155 38.79296875 117.94140625 C47.27453769 124.91902688 58.53313762 126.72880372 69.0703125 128.32421875 C70.87458206 128.61181816 70.87458206 128.61181816 72.71530151 128.90522766 C76.51699351 129.50962291 80.32076281 130.0993576 84.125 130.6875 C87.96450824 131.28877333 91.80348737 131.89314392 95.64181519 132.50190735 C98.02151675 132.87854766 100.40197976 133.25041324 102.78323364 133.61711121 C104.38157547 133.86791191 104.38157547 133.86791191 106.01220703 134.1237793 C106.95387726 134.2693779 107.89554749 134.4149765 108.86575317 134.56498718 C111 135 111 135 112 136 C112.09376053 137.81055025 112.1174411 139.62477201 112.11352539 141.43774414 C112.11341209 143.17943626 112.11341209 143.17943626 112.11329651 144.95631409 C112.10813522 146.219832 112.10297394 147.48334991 112.09765625 148.78515625 C112.0962413 150.07111191 112.09482635 151.35706757 112.09336853 152.68199158 C112.08954418 156.10643443 112.07971462 159.53083509 112.06866455 162.95526123 C112.05844864 166.44738189 112.05387053 169.93950934 112.04882812 173.43164062 C112.03809227 180.28777778 112.02101684 187.14388687 112 194 C107.17010797 192.4685605 103.06198454 190.43997588 98.75 187.8125 C97.23643414 186.90628644 95.72205681 186.00142733 94.20703125 185.09765625 C93.37896973 184.60281738 92.5509082 184.10797852 91.69775391 183.59814453 C86.63863738 180.60113306 81.53509403 177.6809091 76.4375 174.75 C63.93050966 167.54735415 51.46046868 160.28274799 39 153 C34.7921412 150.54085327 30.5837092 148.08269096 26.375 145.625 C25.37573486 145.04065186 24.37646973 144.45630371 23.34692383 143.85424805 C19.05243886 141.34646982 14.75417192 138.84913362 10.41796875 136.4140625 C9.7542627 136.04071777 9.09055664 135.66737305 8.40673828 135.28271484 C6.71291323 134.33422663 5.0148581 133.39330292 3.31640625 132.453125 C1 131 1 131 0 129 C-0.09310234 127.28944682 -0.12191771 125.5752363 -0.12025452 123.8621521 C-0.12162918 122.7739769 -0.12300385 121.6858017 -0.12442017 120.56465149 C-0.12082489 119.36559677 -0.11722961 118.16654205 -0.11352539 116.93115234 C-0.11374443 115.04339836 -0.11374443 115.04339836 -0.1139679 113.11750793 C-0.11425548 109.66111084 -0.10836508 106.20474826 -0.10139394 102.7483592 C-0.09515387 99.1382003 -0.09455608 95.52804066 -0.09336853 91.9178772 C-0.09025715 85.07911286 -0.08204634 78.24036446 -0.07201904 71.40160716 C-0.06085193 63.61694689 -0.05534594 55.83228586 -0.05032361 48.04761958 C-0.03986358 32.03173705 -0.02226785 16.01587056 0 0 Z " fill="#2069A1" transform="translate(161,585)"/>
<path d="M0 0 C4.31900403 1.72760161 8.22947288 3.70713954 12.25 6 C12.95326416 6.39807861 13.65652832 6.79615723 14.38110352 7.20629883 C19.95503836 10.37382719 25.472702 13.63272702 30.98681641 16.90283203 C40.61727439 22.58434458 50.40889659 27.98512996 60.18017578 33.41943359 C63.4643644 35.26028529 66.73113319 37.13207611 70 39 C70 65.4 70 91.8 70 119 C63.2512803 116.75042677 63.2512803 116.75042677 60.1015625 114.890625 C59.38758301 114.47304932 58.67360352 114.05547363 57.93798828 113.62524414 C56.79305908 112.94449829 56.79305908 112.94449829 55.625 112.25 C54.80628418 111.76974365 53.98756836 111.2894873 53.14404297 110.79467773 C51.36556888 109.75122429 49.5884375 108.70547969 47.8125 107.65771484 C43.92095608 105.36400102 40.02022773 103.08616871 36.11865234 100.80957031 C34.21702739 99.69979799 32.31621509 98.58863107 30.41650391 97.47558594 C20.32110574 91.57169934 10.15614056 85.80350889 0 80 C0 53.6 0 27.2 0 0 Z " fill="#5C50E5" transform="translate(408,523)"/>
<path d="M0 0 C4.92587438 1.64195813 8.13238756 3.12989236 12.4375 5.8125 C18.88099003 9.76690581 25.41180598 13.54198795 32 17.25 C32.96309082 17.79285645 33.92618164 18.33571289 34.91845703 18.89501953 C39.02591878 21.20787388 43.13600616 23.51599202 47.24853516 25.81982422 C49.40402003 27.0273977 51.55882248 28.23619023 53.71289062 29.44628906 C55.74510326 30.58788803 57.77890568 31.72666257 59.81445312 32.86230469 C60.72775391 33.37567383 61.64105469 33.88904297 62.58203125 34.41796875 C63.38874268 34.86938232 64.1954541 35.3207959 65.02661133 35.78588867 C67 37 67 37 69 39 C69.1878075 41.52976535 69.25191906 43.94907405 69.22705078 46.47900391 C69.22734283 47.24982803 69.22763489 48.02065216 69.22793579 48.81483459 C69.22653974 51.36885745 69.21096579 53.92259046 69.1953125 56.4765625 C69.19158334 58.24490194 69.18873591 60.01324345 69.18673706 61.78158569 C69.17909293 66.44069095 69.15943778 71.09967194 69.1373291 75.75872803 C69.11688744 80.51100992 69.10773894 85.26331184 69.09765625 90.015625 C69.07619259 99.34380466 69.04204728 108.67189201 69 118 C65.85316661 117.26449463 63.34613224 116.24887846 60.5 114.69921875 C59.62351807 114.22299072 58.74703613 113.7467627 57.84399414 113.25610352 C56.90547607 112.73846436 55.96695801 112.2208252 55 111.6875 C54.0195874 111.14988037 53.0391748 110.61226074 52.02905273 110.05834961 C45.62498037 106.52046434 39.32399804 102.84664467 33.0625 99.0625 C22.16594509 92.49749487 11.07478437 86.25966073 0 80 C0 53.6 0 27.2 0 0 Z " fill="#5C4FE5" transform="translate(486,657)"/>
<path d="M0 0 C0 26.4 0 52.8 0 80 C-8.91 84.95 -17.82 89.9 -27 95 C-33.47174563 98.7986333 -39.93527199 102.60257699 -46.38037109 106.44482422 C-50.84241705 109.09377415 -55.32511937 111.70675966 -59.8125 114.3125 C-61.03259766 115.0245459 -61.03259766 115.0245459 -62.27734375 115.75097656 C-67.88197021 119 -67.88197021 119 -69 119 C-69.20869591 108.67331217 -69.36852619 98.34712723 -69.46630955 88.01875877 C-69.51324651 83.22252202 -69.57688387 78.4277296 -69.67895508 73.63232422 C-69.77687924 69.00268035 -69.83058393 64.37442366 -69.85389519 59.74382401 C-69.8705023 57.97901185 -69.90293568 56.21427422 -69.95157051 54.45005417 C-70.31650075 40.66157262 -70.31650075 40.66157262 -67.15704346 36.67398071 C-64.82624313 35.08239037 -62.62491459 34.0213946 -60 33 C-58.92572754 32.37432129 -57.85145508 31.74864258 -56.74462891 31.10400391 C-55.25068604 30.29842041 -55.25068604 30.29842041 -53.7265625 29.4765625 C-52.58421143 28.85531494 -51.44186035 28.23406738 -50.26489258 27.59399414 C-49.67124908 27.27302765 -49.07760559 26.95206116 -48.4659729 26.62136841 C-34.17216382 18.88529592 -20.17040166 10.70688338 -6.24536133 2.32836914 C-2.30968572 0 -2.30968572 0 0 0 Z " fill="#4040B2" transform="translate(632,568)"/>
<path d="M0 0 C12.68464027 6.26814797 12.68464027 6.26814797 17.859375 9.33203125 C18.82157959 9.89825195 19.78378418 10.46447266 20.77514648 11.04785156 C21.75684814 11.63018555 22.7385498 12.21251953 23.75 12.8125 C25.86009962 14.05436713 27.97077746 15.29525229 30.08203125 16.53515625 C31.60304443 17.42871826 31.60304443 17.42871826 33.15478516 18.34033203 C36.89199559 20.520318 40.65928432 22.64223451 44.4375 24.75 C45.54680878 25.39096115 46.65611755 26.0319223 47.79904175 26.69230652 C50.61006479 28.28407082 53.44106324 29.66430482 56.39891052 30.96066284 C67.58902908 36.16985208 67.58902908 36.16985208 69.9445076 40.89450836 C71.37703413 46.27626739 70.95421791 51.75163755 70.66015625 57.2578125 C70.62839758 59.01460061 70.60422289 60.77154062 70.58726501 62.52853394 C70.52272554 67.1260275 70.35617583 71.71420381 70.16729736 76.30804443 C69.99251631 81.00616335 69.91557112 85.70580865 69.83007812 90.40625 C69.64843337 99.60823407 69.35883548 108.80333904 69 118 C65.4372711 117.34321783 62.79106568 116.53288947 59.65625 114.69921875 C58.83286133 114.22274902 58.00947266 113.7462793 57.16113281 113.25537109 C55.84387207 112.4792749 55.84387207 112.4792749 54.5 111.6875 C52.6095084 110.58961402 50.7188795 109.49196442 48.828125 108.39453125 C47.86197266 107.83072754 46.89582031 107.26692383 45.90039062 106.68603516 C42.24068757 104.55860171 38.56272892 102.46428086 34.8828125 100.37207031 C24.86600297 94.67631029 14.90233308 88.89264244 5 83 C4.14968704 82.64145935 3.29937408 82.2829187 2.42329407 81.91351318 C0 80 0 80 -0.60127258 76.60212708 C-0.61577303 75.17333889 -0.60245546 73.74411106 -0.56762695 72.31567383 C-0.56835709 71.5349501 -0.56908722 70.75422638 -0.56983948 69.94984436 C-0.56635479 67.36820082 -0.5274548 64.78835968 -0.48828125 62.20703125 C-0.47895619 60.41770921 -0.47183863 58.6283744 -0.46684265 56.83903503 C-0.44774853 52.12868017 -0.39862726 47.41909577 -0.34332275 42.70904541 C-0.29218211 37.90314152 -0.26933972 33.09711317 -0.24414062 28.29101562 C-0.1905106 18.86033849 -0.10516882 9.4302333 0 0 Z " fill="#5C4FE5" transform="translate(486,568)"/>
<path d="M0 0 C0.8328286 1.18033981 1.61559062 2.39613754 2.375 3.625 C8.97986116 12.57053846 19.8460659 14.80990129 30.28564453 16.45825195 C31.77372022 16.68078771 33.26183954 16.90303182 34.75 17.125 C36.29441967 17.37068918 37.83852683 17.61835047 39.38232422 17.86791992 C42.46204591 18.36302422 45.54305674 18.84797359 48.62597656 19.32275391 C53.74607137 20.11202585 58.85869965 20.9445897 63.96972656 21.79052734 C66.03059741 22.13145445 68.09242343 22.46667044 70.15527344 22.79541016 C71.05536133 22.94155762 71.95544922 23.08770508 72.8828125 23.23828125 C73.66027832 23.36243408 74.43774414 23.48658691 75.23876953 23.61450195 C77 24 77 24 78 25 C78.09376053 26.81055025 78.1174411 28.62477201 78.11352539 30.43774414 C78.11341209 32.17943626 78.11341209 32.17943626 78.11329651 33.95631409 C78.10813522 35.219832 78.10297394 36.48334991 78.09765625 37.78515625 C78.0962413 39.07111191 78.09482635 40.35706757 78.09336853 41.68199158 C78.08954418 45.10643443 78.07971462 48.53083509 78.06866455 51.95526123 C78.05844864 55.44738189 78.05387053 58.93950934 78.04882812 62.43164062 C78.03809227 69.28777778 78.02101684 76.14388687 78 83 C73.17010797 81.4685605 69.06198454 79.43997588 64.75 76.8125 C63.23643414 75.90628644 61.72205681 75.00142733 60.20703125 74.09765625 C59.37896973 73.60281738 58.5509082 73.10797852 57.69775391 72.59814453 C52.63863738 69.60113306 47.53509403 66.6809091 42.4375 63.75 C29.93050966 56.54735415 17.46046868 49.28274799 5 42 C-13.95185987 30.91661346 -13.95185987 30.91661346 -33 20 C-33 19.34 -33 18.68 -33 18 C-31.85144531 17.3709375 -30.70289063 16.741875 -29.51953125 16.09375 C-21.0017169 11.40637764 -12.60043687 6.63361245 -4.40625 1.3984375 C-2 0 -2 0 0 0 Z " fill="#1F5180" transform="translate(195,696)"/>
<path d="M0 0 C3.8617903 1.44545725 7.36725026 3.23280784 10.95703125 5.2578125 C12.06884766 5.88300781 13.18066406 6.50820313 14.32617188 7.15234375 C15.48831901 7.8098291 16.65042791 8.46738203 17.8125 9.125 C18.99398189 9.79064641 20.175621 10.45601384 21.35742188 11.12109375 C24.23983905 12.74465934 27.12062331 14.37105015 30 16 C30 16.66 30 17.32 30 18 C-2.6015625 36.80859375 -2.6015625 36.80859375 -5.80761719 38.65820312 C-7.95154067 39.89510728 -10.09542026 41.13208754 -12.23925781 42.36914062 C-17.68192559 45.50958117 -23.12535545 48.64868634 -28.5703125 51.78515625 C-40.45791858 58.63472792 -52.33041168 65.50891959 -64.17431641 72.43383789 C-65.98173238 73.49039157 -67.78994001 74.54559275 -69.59912109 75.59912109 C-71.12095051 76.48708705 -72.63988659 77.38004594 -74.15478516 78.27978516 C-78.78141426 81 -78.78141426 81 -81 81 C-81.02312916 73.71578452 -81.04091801 66.4315769 -81.05181217 59.14733219 C-81.05703975 55.76528187 -81.06413511 52.3832566 -81.07543945 49.0012207 C-81.08834267 45.11670223 -81.09322924 41.23219403 -81.09765625 37.34765625 C-81.10281754 36.12788589 -81.10797882 34.90811554 -81.11329651 33.65138245 C-81.11337204 32.53029587 -81.11344757 31.40920929 -81.11352539 30.25415039 C-81.115746 29.26153702 -81.11796661 28.26892365 -81.12025452 27.24623108 C-81 25 -81 25 -80 24 C-77.46142735 24.03887096 -74.96813633 24.14315222 -72.4375 24.3125 C-71.70168701 24.36027588 -70.96587402 24.40805176 -70.20776367 24.45727539 C-65.23618329 24.81865428 -60.80821571 25.66000546 -56 27 C-42.11435653 29.6787265 -28.69247022 30.95984288 -16.1328125 23.4765625 C-7.81619183 17.71890203 -2.25401572 9.83570497 0 0 Z " fill="#1C5C94" transform="translate(356,698)"/>
<path d="M0 0 C7.76518976 4.51987597 12.75945741 11.03151858 16.14453125 19.2734375 C17.77972187 29.44795693 16.22844972 35.91287547 10.70703125 44.7734375 C8.26953125 47.7109375 8.26953125 47.7109375 5.70703125 49.7734375 C5.19527344 50.21171875 4.68351562 50.65 4.15625 51.1015625 C-2.01521144 56.03873165 -9.47381402 57.59650642 -17.29296875 56.7734375 C-26.0010791 54.4764735 -32.65328957 49.74823264 -37.96484375 42.48828125 C-42.26375295 35.06179485 -42.61139174 27.27203692 -40.62890625 19.00390625 C-37.85708728 11.15845343 -33.04171035 5.09856633 -25.91796875 0.7734375 C-17.95430677 -2.77677517 -8.15320614 -3.03690003 0 0 Z " fill="#6281A2" transform="translate(332.29296875,663.2265625)"/>
<path d="M0 0 C18.48 0 36.96 0 56 0 C54.02 2.31 52.04 4.62 50 7 C48.34943835 9.60458101 48.34943835 9.60458101 47.1875 12.125 C46.78917969 12.93195312 46.39085937 13.73890625 45.98046875 14.5703125 C42.55313809 23.06353828 42.4076647 35.08692064 45.8125 43.625 C46.51165661 45.09795627 47.23825411 46.55841638 48 48 C48.30808594 48.639375 48.61617188 49.27875 48.93359375 49.9375 C49.59525057 51.30513516 50.29240015 52.65556029 51 54 C40.9065859 53.47989475 31.05065044 51.79577946 21.11474609 50.04370117 C18.34763969 49.55769451 15.57830874 49.08612006 12.80859375 48.61523438 C11.04672428 48.30815519 9.28499965 48.00024349 7.5234375 47.69140625 C6.69645355 47.55174942 5.8694696 47.41209259 5.01742554 47.26820374 C-0.77075189 46.22924811 -0.77075189 46.22924811 -3 44 C-2.2575 43.29875 -1.515 42.5975 -0.75 41.875 C6.26457114 34.54158471 8.47815787 28.27105081 8.3203125 18.29296875 C7.60590548 10.94851606 4.04473443 6.06710165 0 0 Z " fill="#6383A3" transform="translate(240,661)"/>
<path d="M0 0 C5.97295247 3.31453612 9.37820798 8.77915518 11.5 15.14453125 C12.00094639 22.65872711 10.46737617 27.87798463 5.75 33.89453125 C1.44417172 38.59083905 -3.13491894 40.27317582 -9.4375 40.58203125 C-15.43711163 40.3635325 -19.83205486 38.59311201 -24.2578125 34.53125 C-28.90455605 29.46921778 -31.10926359 24.37567523 -30.8671875 17.35546875 C-29.80171333 10.93995408 -26.65336651 5.54663461 -21.5625 1.51953125 C-15.05668935 -2.29909674 -7.06825819 -2.4186696 0 0 Z " fill="#92A8BF" transform="translate(229.5,662.85546875)"/>
<path d="M0 0 C0.73476563 0.48597656 1.46953125 0.97195313 2.2265625 1.47265625 C2.96519531 1.89804687 3.70382812 2.3234375 4.46484375 2.76171875 C5.49158203 3.42300781 5.49158203 3.42300781 6.5390625 4.09765625 C7.23644531 4.54367187 7.93382812 4.9896875 8.65234375 5.44921875 C9.17183594 5.78695312 9.69132812 6.1246875 10.2265625 6.47265625 C9.5665625 6.80265625 8.9065625 7.13265625 8.2265625 7.47265625 C5.96564147 6.23819337 3.85662205 4.83054061 1.7109375 3.40625 C-0.7535737 2.23990171 -0.7535737 2.23990171 -3.3984375 2.93359375 C-8.31205674 5.17429512 -12.88892683 7.89507855 -17.5234375 10.66015625 C-19.68449383 11.93557723 -21.8459665 13.21029298 -24.0078125 14.484375 C-25.12349609 15.14356934 -26.23917969 15.80276367 -27.38867188 16.48193359 C-32.82935775 19.68182919 -38.30165224 22.82633856 -43.7734375 25.97265625 C-53.09857541 31.34299846 -62.40229824 36.74865422 -71.69262695 42.17895508 C-80.54560713 47.34949487 -89.42475095 52.4740244 -98.31054688 57.58789062 C-99.34373047 58.18279297 -100.37691406 58.77769531 -101.44140625 59.390625 C-102.35172607 59.91422607 -103.2620459 60.43782715 -104.19995117 60.97729492 C-105.97800273 62.01045741 -107.737834 63.0753932 -109.48168945 64.1652832 C-111.7734375 65.47265625 -111.7734375 65.47265625 -113.7734375 65.47265625 C-113.7734375 66.13265625 -113.7734375 66.79265625 -113.7734375 67.47265625 C-112.59007812 67.79169922 -112.59007812 67.79169922 -111.3828125 68.1171875 C-106.57035589 69.92446287 -102.40846309 72.49884507 -98.0234375 75.16015625 C-96.05939821 76.33728079 -94.09451787 77.51300289 -92.12890625 78.6875 C-91.09685059 79.3047998 -90.06479492 79.92209961 -89.00146484 80.55810547 C-83.47778692 83.83421213 -77.90553505 87.02545958 -72.3359375 90.22265625 C-63.08683835 95.54010628 -53.88577202 100.92405652 -44.7734375 106.47265625 C-45.7634375 106.96765625 -45.7634375 106.96765625 -46.7734375 107.47265625 C-48.91455078 106.52319336 -48.91455078 106.52319336 -51.59375 105 C-52.59196777 104.43708252 -53.59018555 103.87416504 -54.61865234 103.29418945 C-55.70098145 102.6724585 -56.78331055 102.05072754 -57.8984375 101.41015625 C-59.01557129 100.7761792 -60.13270508 100.14220215 -61.28369141 99.48901367 C-70.74612838 94.10347066 -80.15817872 88.63015012 -89.546875 83.1171875 C-97.9381878 78.20558472 -106.35884239 73.34426394 -114.7734375 68.47265625 C-114.4434375 111.70265625 -114.1134375 154.93265625 -113.7734375 199.47265625 C-112.1234375 200.13265625 -110.4734375 200.79265625 -108.7734375 201.47265625 C-107.48437581 202.12461034 -106.20761151 202.80153499 -104.9453125 203.50390625 C-104.23761719 203.89666748 -103.52992188 204.28942871 -102.80078125 204.6940918 C-102.04925781 205.11601807 -101.29773438 205.53794434 -100.5234375 205.97265625 C-99.32654297 206.64131714 -99.32654297 206.64131714 -98.10546875 207.32348633 C-92.2649791 210.60068841 -86.47960399 213.96436596 -80.71801758 217.37792969 C-74.24459266 221.21002159 -67.73044338 224.96959611 -61.2109375 228.72265625 C-51.73081408 234.18122241 -42.26793461 239.66786414 -32.83178711 245.20214844 C-22.85680791 251.03964883 -12.81048949 256.73719797 -2.7734375 262.47265625 C-2.7734375 243.33265625 -2.7734375 224.19265625 -2.7734375 204.47265625 C-1.1234375 204.47265625 0.5265625 204.47265625 2.2265625 204.47265625 C1.5665625 205.13265625 0.9065625 205.79265625 0.2265625 206.47265625 C-0.10503035 208.93885789 -0.10503035 208.93885789 -0.09228516 211.84033203 C-0.11215485 212.96134308 -0.13202454 214.08235413 -0.15249634 215.23733521 C-0.16404755 216.45194427 -0.17559875 217.66655334 -0.1875 218.91796875 C-0.20686615 220.15811737 -0.2262323 221.39826599 -0.2461853 222.67599487 C-0.2959256 225.97377404 -0.33716227 229.27151764 -0.37432861 232.56945801 C-0.41432752 235.93442959 -0.46543853 239.29923017 -0.515625 242.6640625 C-0.61183537 249.26681732 -0.69684133 255.86964636 -0.7734375 262.47265625 C9.11889041 257.00881078 18.98731145 251.51893173 28.7265625 245.78515625 C30.78093451 244.58149262 32.83563373 243.37838732 34.890625 242.17578125 C35.9312207 241.56669922 36.97181641 240.95761719 38.04394531 240.33007812 C43.38547405 237.21268393 48.74310494 234.12333374 54.1015625 231.03515625 C55.17317627 230.41729248 56.24479004 229.79942871 57.34887695 229.1628418 C62.93782961 225.94138804 68.52885887 222.72356467 74.12109375 219.5078125 C76.38552977 218.2046236 78.64985456 216.9012414 80.9140625 215.59765625 C81.9973584 214.97439453 83.0806543 214.35113281 84.19677734 213.70898438 C90.86551638 209.86301922 97.50028837 205.96817963 104.04174805 201.90869141 C108.01510436 199.47265625 108.01510436 199.47265625 110.2265625 199.47265625 C110.2265625 198.81265625 110.2265625 198.15265625 110.2265625 197.47265625 C109.34718018 197.20388672 108.46779785 196.93511719 107.56176758 196.65820312 C104.38987554 195.53070823 101.75597321 194.21035984 98.86328125 192.50390625 C97.89455078 191.93285156 96.92582031 191.36179687 95.92773438 190.7734375 C94.93322266 190.17917969 93.93871094 189.58492187 92.9140625 188.97265625 C91.90021484 188.37839844 90.88636719 187.78414062 89.84179688 187.171875 C82.35457961 182.72869048 82.35457961 182.72869048 81.2265625 180.47265625 C86.14580246 182.23093881 90.56530806 184.79275432 95.1015625 187.34765625 C95.87886719 187.78207031 96.65617188 188.21648437 97.45703125 188.6640625 C102.062042 191.24132062 106.64442914 193.85429433 111.2265625 196.47265625 C111.2265625 182.61265625 111.2265625 168.75265625 111.2265625 154.47265625 C111.5565625 154.47265625 111.8865625 154.47265625 112.2265625 154.47265625 C112.45523606 160.77077213 112.6125529 167.06781503 112.72094727 173.36914062 C112.76613937 175.51114904 112.82750904 177.65288084 112.90551758 179.79394531 C113.01503621 182.8776464 113.06579544 185.95767444 113.10546875 189.04296875 C113.1751461 190.47299728 113.1751461 190.47299728 113.24623108 191.93191528 C113.24833053 194.71298204 113.13559949 196.84098313 112.2265625 199.47265625 C109.54693662 202.13985567 106.58478809 203.78123664 103.2265625 205.47265625 C102.3183374 206.01792969 101.4101123 206.56320312 100.47436523 207.125 C99.71067627 207.54910156 98.9469873 207.97320313 98.16015625 208.41015625 C96.83310669 209.15241455 96.83310669 209.15241455 95.47924805 209.90966797 C94.55023682 210.4254541 93.62122559 210.94124023 92.6640625 211.47265625 C84.53710406 216.02522451 76.45228339 220.64013477 68.4140625 225.34765625 C60.07520421 230.22869062 51.72293024 235.08506269 43.3515625 239.91015625 C42.28679687 240.52391113 41.22203125 241.13766602 40.125 241.77001953 C36.82573295 243.67126684 33.52615115 245.57196714 30.2265625 247.47265625 C26.0302494 249.89049287 21.83435966 252.30906287 17.63885498 254.728302 C15.95558028 255.69872098 14.27198363 256.66858144 12.58837891 257.63842773 C11.56534668 258.22825439 10.54231445 258.81808105 9.48828125 259.42578125 C8.59069092 259.94301758 7.69310059 260.46025391 6.76831055 260.99316406 C4.18093461 262.4370542 4.18093461 262.4370542 1.77270508 264.28808594 C-0.7734375 265.47265625 -0.7734375 265.47265625 -3.74169922 264.85595703 C-6.7183687 263.49778267 -9.48275335 262.03440467 -12.28125 260.33984375 C-13.86305054 259.39032837 -13.86305054 259.39032837 -15.47680664 258.42163086 C-16.03304718 258.08436981 -16.58928772 257.74710876 -17.16238403 257.39962769 C-20.17188394 255.57600416 -23.19374897 253.77307757 -26.21484375 251.96875 C-27.1522364 251.40816643 -27.1522364 251.40816643 -28.10856628 250.83625793 C-34.63545531 246.9414927 -41.22894936 243.16693039 -47.8359375 239.41015625 C-49.00702965 238.74354396 -50.1780908 238.0768772 -51.34912109 237.41015625 C-53.09905424 236.41391923 -54.84901637 235.41773384 -56.59918213 234.42190552 C-75.06752529 223.90870163 -93.45827361 213.25052058 -111.7734375 202.47265625 C-113.06529103 201.85576951 -113.06529103 201.85576951 -114.38324261 201.2264204 C-116.7734375 199.47265625 -116.7734375 199.47265625 -117.38867664 197.0107851 C-117.3817632 195.53269005 -117.3817632 195.53269005 -117.37471008 194.0247345 C-117.3815834 192.89311386 -117.38845673 191.76149323 -117.39553833 190.59558105 C-117.37756195 189.35336792 -117.35958557 188.11115479 -117.34106445 186.83129883 C-117.34179459 185.52388229 -117.34252472 184.21646576 -117.34327698 182.86943054 C-117.34471336 179.28260316 -117.31528924 175.69660943 -117.28040719 172.10997605 C-117.24917981 168.36239728 -117.24621584 164.61480001 -117.24028015 160.86711121 C-117.22473094 153.76966665 -117.1836883 146.67260654 -117.1335327 139.57533139 C-117.07767243 131.49566337 -117.05016116 123.41597712 -117.02505553 115.33616412 C-116.97277304 98.71476966 -116.88481032 82.09376199 -116.7734375 65.47265625 C-116.26007591 65.18811679 -115.74671432 64.90357733 -115.21779633 64.61041546 C-112.86300661 63.30484529 -110.50864904 61.9984977 -108.15429688 60.69213867 C-107.34684021 60.24460991 -106.53938354 59.79708115 -105.7074585 59.33599091 C-99.51492532 55.8988753 -93.37678911 52.3783738 -87.2734375 48.78515625 C-85.21906549 47.58149262 -83.16436627 46.37838732 -81.109375 45.17578125 C-80.0687793 44.56669922 -79.02818359 43.95761719 -77.95605469 43.33007812 C-72.61452571 40.2126838 -67.25687458 37.12336965 -61.8984375 34.03515625 C-60.28557861 33.10509766 -60.28557861 33.10509766 -58.64013672 32.15625 C-53.11421603 28.97078714 -47.58568909 25.7899134 -42.0546875 22.61328125 C-40.95068604 21.97825684 -39.84668457 21.34323242 -38.70922852 20.68896484 C-36.52339017 19.43203929 -34.33639964 18.17711504 -32.14819336 16.92431641 C-26.99928658 13.96441391 -21.89915931 10.95443369 -16.87109375 7.79296875 C-15.95440918 7.22151123 -15.03772461 6.65005371 -14.09326172 6.0612793 C-12.3855737 4.99013349 -10.68724811 3.90385723 -9.00048828 2.80004883 C-3.47015447 -0.6598181 -3.47015447 -0.6598181 0 0 Z " fill="#1774B9" transform="translate(275.7734375,516.52734375)"/>
<path d="M0 0 C0.83265381 0.00523682 1.66530762 0.01047363 2.52319336 0.01586914 C3.42231445 0.0190918 4.32143555 0.02231445 5.24780273 0.02563477 C6.66609375 0.03820312 6.66609375 0.03820312 8.11303711 0.05102539 C9.06243164 0.05553711 10.01182617 0.06004883 10.98999023 0.06469727 C13.34356776 0.07652429 15.69702188 0.09300514 18.05053711 0.11352539 C19.42918502 2.28859135 20.7771859 4.47488158 22.11303711 6.67602539 C22.50297852 7.28510742 22.89291992 7.89418945 23.29467773 8.52172852 C25.31071324 11.89368171 26.06486996 13.64668391 25.94116211 17.67602539 C24.34407869 23.84020702 22.96533207 28.79776361 18.05053711 33.11352539 C11.71609458 35.30324457 4.37677123 35.33937115 -1.94946289 33.11352539 C-7.18738211 29.2852316 -9.04002955 23.08950086 -10.86743164 17.10961914 C-10.97893355 13.03714456 -9.28868565 10.54830526 -7.07446289 7.30102539 C-6.50791992 6.42414062 -6.50791992 6.42414062 -5.92993164 5.52954102 C-2.4208067 0.14097372 -2.4208067 0.14097372 0 0 Z " fill="#8FA6BD" transform="translate(311.949462890625,673.886474609375)"/>
<path d="M0 0 C3.875 1.75 3.875 1.75 5 4 C4.53974915 5.72973633 4.53974915 5.72973633 3.70825195 7.83203125 C3.40075516 8.6204541 3.09325836 9.40887695 2.77644348 10.22119141 C2.43384995 11.07632324 2.09125641 11.93145508 1.73828125 12.8125 C1.21768379 14.13773682 1.21768379 14.13773682 0.68656921 15.48974609 C-0.43092966 18.32939465 -1.559087 21.16467315 -2.6875 24 C-3.42973505 25.88123494 -4.17127984 27.76274238 -4.91210938 29.64453125 C-6.60675028 33.94341341 -8.3063389 38.24025013 -10.0184021 42.53222656 C-10.71660738 44.28754048 -11.40960333 46.04493037 -12.09902954 47.80371094 C-12.45669403 48.7115332 -12.81435852 49.61935547 -13.18286133 50.5546875 C-13.50708572 51.38210449 -13.83131012 52.20952148 -14.1653595 53.06201172 C-15 55 -15 55 -16 56 C-17.99964982 56.08758003 -20.0023611 56.10696576 -22.00390625 56.09765625 C-23.21884766 56.09443359 -24.43378906 56.09121094 -25.68554688 56.08789062 C-26.96494141 56.07951172 -28.24433594 56.07113281 -29.5625 56.0625 C-30.84576172 56.05798828 -32.12902344 56.05347656 -33.45117188 56.04882812 C-36.63416022 56.03699545 -39.81705762 56.02051068 -43 56 C-41.64881155 53.10143745 -40.10301359 50.67656275 -38.12890625 48.1640625 C-37.56042969 47.43703125 -36.99195313 46.71 -36.40625 45.9609375 C-35.7978125 45.19007813 -35.189375 44.41921875 -34.5625 43.625 C-33.93214844 42.820625 -33.30179688 42.01625 -32.65234375 41.1875 C-30.77160692 38.78898946 -28.88634127 36.39410404 -27 34 C-26.04014503 32.77881837 -25.08048763 31.5574814 -24.12109375 30.3359375 C-22.81685967 28.67552319 -21.51218767 27.0154702 -20.20556641 25.35693359 C-17.54912463 21.98285168 -14.90838152 18.59706343 -12.27734375 15.203125 C-11.64054687 14.38199219 -11.00375 13.56085937 -10.34765625 12.71484375 C-9.09513289 11.09860195 -7.84378858 9.4814456 -6.59375 7.86328125 C-6.02527344 7.12980469 -5.45679688 6.39632812 -4.87109375 5.640625 C-4.36505615 4.98610352 -3.85901855 4.33158203 -3.33764648 3.65722656 C-2 2 -2 2 0 0 Z " fill="#4C6F95" transform="translate(262,597)"/>
<path d="M0 0 C0.73476563 0.48597656 1.46953125 0.97195313 2.2265625 1.47265625 C2.96519531 1.89804687 3.70382812 2.3234375 4.46484375 2.76171875 C5.49158203 3.42300781 5.49158203 3.42300781 6.5390625 4.09765625 C7.23644531 4.54367187 7.93382812 4.9896875 8.65234375 5.44921875 C9.17183594 5.78695312 9.69132812 6.1246875 10.2265625 6.47265625 C9.5665625 6.80265625 8.9065625 7.13265625 8.2265625 7.47265625 C5.96564147 6.23819337 3.85662205 4.83054061 1.7109375 3.40625 C-0.7535737 2.23990171 -0.7535737 2.23990171 -3.3984375 2.93359375 C-8.31205674 5.17429512 -12.88892683 7.89507855 -17.5234375 10.66015625 C-19.68449383 11.93557723 -21.8459665 13.21029298 -24.0078125 14.484375 C-25.12349609 15.14356934 -26.23917969 15.80276367 -27.38867188 16.48193359 C-32.82935775 19.68182919 -38.30165224 22.82633856 -43.7734375 25.97265625 C-53.09857541 31.34299846 -62.40229824 36.74865422 -71.69262695 42.17895508 C-80.54560713 47.34949487 -89.42475095 52.4740244 -98.31054688 57.58789062 C-99.34373047 58.18279297 -100.37691406 58.77769531 -101.44140625 59.390625 C-102.35172607 59.91422607 -103.2620459 60.43782715 -104.19995117 60.97729492 C-105.97800273 62.01045741 -107.737834 63.0753932 -109.48168945 64.1652832 C-111.7734375 65.47265625 -111.7734375 65.47265625 -113.7734375 65.47265625 C-113.7734375 66.13265625 -113.7734375 66.79265625 -113.7734375 67.47265625 C-112.59007812 67.79169922 -112.59007812 67.79169922 -111.3828125 68.1171875 C-106.57035589 69.92446287 -102.40846309 72.49884507 -98.0234375 75.16015625 C-96.05939821 76.33728079 -94.09451787 77.51300289 -92.12890625 78.6875 C-91.09685059 79.3047998 -90.06479492 79.92209961 -89.00146484 80.55810547 C-83.47778692 83.83421213 -77.90553505 87.02545958 -72.3359375 90.22265625 C-63.08683835 95.54010628 -53.88577202 100.92405652 -44.7734375 106.47265625 C-45.7634375 106.96765625 -45.7634375 106.96765625 -46.7734375 107.47265625 C-48.91455078 106.52319336 -48.91455078 106.52319336 -51.59375 105 C-52.59196777 104.43708252 -53.59018555 103.87416504 -54.61865234 103.29418945 C-55.70098145 102.6724585 -56.78331055 102.05072754 -57.8984375 101.41015625 C-59.01557129 100.7761792 -60.13270508 100.14220215 -61.28369141 99.48901367 C-70.74612838 94.10347066 -80.15817872 88.63015012 -89.546875 83.1171875 C-97.93267873 78.19609844 -106.35578672 73.33898965 -114.7734375 68.47265625 C-114.77121689 69.16991821 -114.76899628 69.86718018 -114.76670837 70.58557129 C-114.73909637 79.71458851 -114.72140743 88.84360524 -114.7109375 97.97265625 C-114.71008148 98.71364689 -114.70922546 99.45463753 -114.70834351 100.21808243 C-114.68410477 124.03631366 -114.8709642 147.84533994 -115.2734375 171.66015625 C-115.28539532 172.36810333 -115.29735313 173.07605042 -115.30967331 173.80545044 C-115.45501824 182.36135781 -115.60929937 190.91708827 -115.7734375 199.47265625 C-116.1034375 199.47265625 -116.4334375 199.47265625 -116.7734375 199.47265625 C-116.7734375 155.25265625 -116.7734375 111.03265625 -116.7734375 65.47265625 C-107.8634375 60.52265625 -107.8634375 60.52265625 -98.7734375 55.47265625 C-94.93012404 53.25782368 -91.09559036 51.03536689 -87.2734375 48.78515625 C-85.21906549 47.58149262 -83.16436627 46.37838732 -81.109375 45.17578125 C-80.0687793 44.56669922 -79.02818359 43.95761719 -77.95605469 43.33007812 C-72.61452571 40.2126838 -67.25687458 37.12336965 -61.8984375 34.03515625 C-60.28557861 33.10509766 -60.28557861 33.10509766 -58.64013672 32.15625 C-53.11421603 28.97078714 -47.58568909 25.7899134 -42.0546875 22.61328125 C-40.95068604 21.97825684 -39.84668457 21.34323242 -38.70922852 20.68896484 C-36.52339017 19.43203929 -34.33639964 18.17711504 -32.14819336 16.92431641 C-26.99928658 13.96441391 -21.89915931 10.95443369 -16.87109375 7.79296875 C-15.95440918 7.22151123 -15.03772461 6.65005371 -14.09326172 6.0612793 C-12.3855737 4.99013349 -10.68724811 3.90385723 -9.00048828 2.80004883 C-3.47015447 -0.6598181 -3.47015447 -0.6598181 0 0 Z " fill="#228DCC" transform="translate(275.7734375,516.52734375)"/>
<path d="M0 0 C0.83265381 0.00523682 1.66530762 0.01047363 2.52319336 0.01586914 C3.42231445 0.0190918 4.32143555 0.02231445 5.24780273 0.02563477 C6.66609375 0.03820312 6.66609375 0.03820312 8.11303711 0.05102539 C9.06243164 0.05553711 10.01182617 0.06004883 10.98999023 0.06469727 C13.34356776 0.07652429 15.69702188 0.09300514 18.05053711 0.11352539 C19.42918502 2.28859135 20.7771859 4.47488158 22.11303711 6.67602539 C22.50297852 7.28510742 22.89291992 7.89418945 23.29467773 8.52172852 C25.31071324 11.89368171 26.06486996 13.64668391 25.94116211 17.67602539 C24.34407869 23.84020702 22.96533207 28.79776361 18.05053711 33.11352539 C11.71609458 35.30324457 4.37677123 35.33937115 -1.94946289 33.11352539 C-7.18738211 29.2852316 -9.04002955 23.08950086 -10.86743164 17.10961914 C-10.97893355 13.03714456 -9.28868565 10.54830526 -7.07446289 7.30102539 C-6.50791992 6.42414062 -6.50791992 6.42414062 -5.92993164 5.52954102 C-2.4208067 0.14097372 -2.4208067 0.14097372 0 0 Z M-1.82446289 6.98852539 C-3.06236938 9.8735991 -3.06236938 9.8735991 -2.94946289 12.11352539 C-3.60946289 12.11352539 -4.26946289 12.11352539 -4.94946289 12.11352539 C-5.88615463 15.72112671 -6.15650784 17.60356901 -4.73461914 21.10571289 C-3.8819043 22.53270508 -3.8819043 22.53270508 -3.01196289 23.98852539 C-2.44606445 24.95532227 -1.88016602 25.92211914 -1.29711914 26.91821289 C-0.6300293 28.00489258 -0.6300293 28.00489258 0.05053711 29.11352539 C5.26391431 29.83816469 9.86304521 30.17122097 15.05053711 29.11352539 C18.68293548 25.65950372 20.79070566 21.96418079 22.05053711 17.11352539 C21.40412023 14.45839579 21.40412023 14.45839579 20.05053711 12.11352539 C19.78756836 11.37489258 19.52459961 10.63625977 19.25366211 9.87524414 C18.09959377 7.36372657 17.19000125 5.89427698 15.05053711 4.11352539 C9.56997459 2.91363892 1.7699804 1.70796143 -1.82446289 6.98852539 Z " fill="#F6F8FA" transform="translate(311.949462890625,673.886474609375)"/>
<path d="M0 0 C5.74837114 1.62133545 9.4503244 3.91684689 15 7 C15 51.22 15 95.44 15 141 C14.67 141 14.34 141 14 141 C12.99545178 110.7299698 12.91112655 80.47081302 12.9375 50.1875 C12.93835602 49.19764854 12.93921204 48.20779709 12.94009399 47.18795013 C12.95159978 34.79194918 12.97183938 22.39597388 13 10 C12.34039276 10.38515274 11.68078552 10.77030548 11.00119019 11.16712952 C-12.80341492 25.06511165 -12.80341492 25.06511165 -23.875 31.4375 C-24.93831543 32.05036865 -26.00163086 32.6632373 -27.09716797 33.29467773 C-31.49458374 35.82921411 -35.89282921 38.36230905 -40.29101562 40.89550781 C-43.56931061 42.78398493 -46.84727986 44.67302534 -50.125 46.5625 C-51.72275269 47.48349487 -51.72275269 47.48349487 -53.3527832 48.4230957 C-61.919649 53.36614407 -70.465671 58.34443725 -78.99853516 63.34594727 C-81.66168134 64.9043101 -84.33045681 66.45263015 -87 68 C-87.86093262 68.50885742 -88.72186523 69.01771484 -89.60888672 69.54199219 C-90.41729004 70.01024414 -91.22569336 70.47849609 -92.05859375 70.9609375 C-92.77200928 71.37907715 -93.4854248 71.7972168 -94.22045898 72.22802734 C-94.80770752 72.48277832 -95.39495605 72.7375293 -96 73 C-96.66 72.67 -97.32 72.34 -98 72 C-87.06731918 65.52870564 -76.08196309 59.15241645 -65.07275391 52.81225586 C-56.71798686 47.99812378 -48.38480588 43.14814357 -40.06054688 38.28149414 C-31.4390432 33.24541639 -22.78732965 28.26254606 -14.13085938 23.28686523 C-7.427326 19.42578152 -0.75870115 15.51580128 5.81469727 11.4362793 C9.78867235 9 9.78867235 9 12 9 C12 8.34 12 7.68 12 7 C11.13375 6.7525 10.2675 6.505 9.375 6.25 C5.80481983 4.92771105 3.05577189 3.25545068 0 1 C0 0.67 0 0.34 0 0 Z " fill="#1E85C7" transform="translate(374,575)"/>
<path d="M0 0 C2.54443385 0 5.04327547 0.09848831 7.578125 0.3125 C9.19129343 2.68480651 10.53856983 4.67118125 11.578125 7.3125 C10.86120003 11.04050985 9.68301467 13.15516549 7.578125 16.3125 C4.17947937 17.07630712 0.98763184 16.9933033 -2.421875 16.3125 C-5.109375 13.625 -5.109375 13.625 -6.421875 10.3125 C-6.359375 7.75 -6.359375 7.75 -5.421875 5.3125 C-5.1125 4.384375 -4.803125 3.45625 -4.484375 2.5 C-2.421875 0.3125 -2.421875 0.3125 0 0 Z " fill="#FCFDFD" transform="translate(217.421875,673.6875)"/>
<path d="M0 0 C1.65 0 3.3 0 5 0 C4.34 0.66 3.68 1.32 3 2 C2.70703857 4.5083592 2.70703857 4.5083592 2.77294922 7.45947266 C2.77310028 8.60050446 2.77325134 9.74153625 2.77340698 10.91714478 C2.78372955 12.15362762 2.79405212 13.39011047 2.8046875 14.6640625 C2.8075174 15.92640717 2.81034729 17.18875183 2.81326294 18.48934937 C2.82257869 21.84646944 2.84055165 25.20331912 2.8626709 28.56036377 C2.8831245 31.98553122 2.8922636 35.41072659 2.90234375 38.8359375 C2.92443542 45.55736671 2.95793623 52.27866773 3 59 C1.35 59 -0.3 59 -2 59 C-1.01 58.505 -1.01 58.505 0 58 C0 38.86 0 19.72 0 0 Z " fill="#1064AA" transform="translate(273,721)"/>
<path d="M0 0 C1.65 1.65 3.3 3.3 5 5 C6.94086997 6.36245107 6.94086997 6.36245107 8.8125 7.3125 C9.864375 7.869375 10.91625 8.42625 12 9 C12 9.66 12 10.32 12 11 C6.57983398 15.15311422 1.57161703 14.21664672 -5 14 C-3.35 9.38 -1.7 4.76 0 0 Z " fill="#256DA3" transform="translate(260,639)"/>
<path d="M0 0 C1.65 0 3.3 0 5 0 C4.34 0.66 3.68 1.32 3 2 C2.32707499 3.96690374 2.32707499 3.96690374 1.875 6.125 C1.58625 7.40375 1.2975 8.6825 1 10 C0.67 10 0.34 10 0 10 C0 6.7 0 3.4 0 0 Z " fill="#1A6CAD" transform="translate(273,721)"/>
</svg>
